:FULLY-SPECIFIED
:FORCE-ALL-JOINTS-BE-3DOF
:DEGREES
437
root 10.497 17.1583 25.6032 7.95348 -2.13371 -0.0748494
lfemur -33.601 4.07461 -25.2
ltibia 32.1606 0 0
lfoot -5.60018 6.86394 0
ltoes 5.23246 0 0
rfemur -3.46713 -0.231552 19.4242
rtibia 52.5536 0 0
rfoot 17.4659 -1.75552 0
rtoes -16.8216 0 0
lowerback -5.37022 2.28413 -1.7827
upperback -3.95355 3.13049 0.894436
thorax -1.19615 1.61117 2.03299
lowerneck -17.2567 -5.40333 -14.5968
upperneck 22.6709 -6.92038 13.3037
head 11.2051 -2.9011 6.34912
lclavicle 1.85875e-14 6.71566e-15 0
lhumerus -41.8195 -3.28967 88.1423
lradius 19.28 0 0
lwrist -5.67512 0 0
lhand -10.7021 -23.2226 0
lfingers 7.12502 0 0
lthumb 15.3074 6.18966 0
rclavicle 1.85875e-14 6.71566e-15 0
rhumerus -45.1181 9.23131 -90.272
rradius 29.1796 0 0
rwrist -13.0817 0 0
rhand -27.2714 -26.647 0
rfingers 7.12502 0 0
rthumb -0.681981 -56.6151 0
438
root 10.5156 17.1675 25.7371 7.88524 -2.00529 0.0711953
lfemur -33.0254 4.14263 -25.4674
ltibia 32.1792 0 0
lfoot -5.76243 6.70419 0
ltoes 5.37081 0 0
rfemur -4.35409 -0.322031 19.2166
rtibia 53.2597 0 0
rfoot 16.9166 -2.02915 0
rtoes -16.8233 0 0
lowerback -5.32065 2.13543 -1.87834
upperback -3.92404 2.93998 0.879608
thorax -1.18191 1.51448 2.05675
lowerneck -17.3502 -5.33197 -14.4933
upperneck 22.7469 -6.82209 13.2123
head 11.2322 -2.85634 6.31508
lclavicle 1.84158e-14 7.36176e-15 0
lhumerus -41.0516 -3.55253 87.9917
lradius 19.3314 0 0
lwrist -5.65269 0 0
lhand -10.7897 -23.2131 0
lfingers 7.12502 0 0
lthumb 15.2229 6.2049 0
rclavicle 1.84158e-14 7.36176e-15 0
rhumerus -45.3439 9.21168 -90.2657
rradius 29.29 0 0
rwrist -13.1625 0 0
rhand -27.5192 -26.4372 0
rfingers 7.12502 0 0
rthumb -0.921199 -56.3978 0
439
root 10.5341 17.177 25.8687 7.80471 -1.86133 0.209772
lfemur -32.427 4.19669 -25.7158
ltibia 32.1792 0 0
lfoot -5.9746 6.54602 0
ltoes 5.47424 0 0
rfemur -5.27349 -0.410124 19.0307
rtibia 53.903 0 0
rfoot 16.2333 -2.30599 0
rtoes -16.8003 0 0
lowerback -5.27243 1.97361 -1.9683
upperback -3.87955 2.73082 0.873036
thorax -1.15014 1.40828 2.08564
lowerneck -17.4598 -5.25476 -14.3746
upperneck 22.8277 -6.71533 13.1092
head 11.2624 -2.80737 6.27541
lclavicle 1.82009e-14 7.98847e-15 0
lhumerus -40.2326 -3.85881 87.8483
lradius 19.4072 0 0
lwrist -5.58888 0 0
lhand -10.8865 -23.2108 0
lfingers 7.12502 0 0
lthumb 15.1297 6.2135 0
rclavicle 1.82009e-14 7.98847e-15 0
rhumerus -45.5403 9.20956 -90.2438
rradius 29.4458 0 0
rwrist -13.2672 0 0
rhand -27.808 -26.1846 0
rfingers 7.12502 0 0
rthumb -1.20002 -56.1367 0
440
root 10.5523 17.1868 25.9982 7.71283 -1.703 0.341293
lfemur -31.8068 4.23754 -25.9462
ltibia 32.1607 0 0
lfoot -6.23308 6.38957 0
ltoes 5.54464 0 0
rfemur -6.2224 -0.495296 18.8649
rtibia 54.4853 0 0
rfoot 15.4254 -2.58561 0
rtoes -16.7546 0 0
lowerback -5.22568 1.79966 -2.05293
upperback -3.82103 2.50446 0.874161
thorax -1.10181 1.2933 2.1193
lowerneck -17.5842 -5.1722 -14.2419
upperneck 22.9129 -6.60081 12.9953
head 11.2952 -2.75453 6.23055
lclavicle 1.79471e-14 8.59535e-15 0
lhumerus -39.367 -4.20565 87.712
lradius 19.5063 0 0
lwrist -5.48624 0 0
lhand -10.9915 -23.2153 0
lfingers 7.12502 0 0
lthumb 15.0285 6.21581 0
rclavicle 1.79471e-14 8.59535e-15 0
rhumerus -45.7092 9.22358 -90.2072
rradius 29.6434 0 0
rwrist -13.3941 0 0
rhand -28.1344 -25.8925 0
rfingers 7.12502 0 0
rthumb -1.51506 -55.8352 0
441
root 10.5703 17.197 26.1258 7.61057 -1.53145 0.466171
lfemur -31.1657 4.26591 -26.1593
ltibia 32.1234 0 0
lfoot -6.53429 6.23501 0
ltoes 5.58392 0 0
rfemur -7.19787 -0.577012 18.7178
rtibia 55.0083 0 0
rfoot 14.5024 -2.86755 0
rtoes -16.6885 0 0
lowerback -5.18054 1.61461 -2.13258
upperback -3.74941 2.26234 0.882423
thorax -1.03794 1.17026 2.15735
lowerneck -17.7223 -5.08478 -14.0964
upperneck 23.0019 -6.47924 12.8717
head 11.3306 -2.69815 6.18096
lclavicle 1.76584e-14 9.18193e-15 0
lhumerus -38.4591 -4.59018 87.5825
lradius 19.6274 0 0
lwrist -5.34728 0 0
lhand -11.1041 -23.2263 0
lfingers 7.12502 0 0
lthumb 14.9199 6.21215 0
rclavicle 1.76584e-14 9.18193e-15 0
rhumerus -45.8522 9.25238 -90.1568
rradius 29.8796 0 0
rwrist -13.5414 0 0
rhand -28.4948 -25.5644 0
rfingers 7.12502 0 0
rthumb -1.86295 -55.4968 0
442
root 10.5879 17.2073 26.2515 7.49887 -1.34787 0.584821
lfemur -30.5048 4.28255 -26.3561
ltibia 32.0675 0 0
lfoot -6.87461 6.08248 0
ltoes 5.59396 0 0
rfemur -8.19696 -0.654738 18.5877
rtibia 55.4738 0 0
rfoot 13.4736 -3.1514 0
rtoes -16.6042 0 0
lowerback -5.13713 1.41948 -2.20761
upperback -3.66567 2.00588 0.897261
thorax -0.959504 1.03989 2.19942
lowerneck -17.8731 -4.99297 -13.9392
upperneck 23.0942 -6.35135 12.7393
head 11.3682 -2.63858 6.12707
lclavicle 1.7339e-14 9.74775e-15 0
lhumerus -37.5135 -5.00954 87.4595
lradius 19.7692 0 0
lwrist -5.17454 0 0
lhand -11.2235 -23.2433 0
lfingers 7.12502 0 0
lthumb 14.8048 6.20289 0
rclavicle 1.7339e-14 9.74775e-15 0
rhumerus -45.9711 9.29458 -90.0936
rradius 30.151 0 0
rwrist -13.7073 0 0
rhand -28.8857 -25.2037 0
rfingers 7.12502 0 0
rthumb -2.2403 -55.125 0
443
root 10.6053 17.2178 26.3755 7.3787 -1.15342 0.697655
lfemur -29.8249 4.2882 -26.5374
ltibia 31.993 0 0
lfoot -7.25047 5.93212 0
ltoes 5.57668 0 0
rfemur -9.21672 -0.72794 18.4732
rtibia 55.8835 0 0
rfoot 12.3485 -3.43671 0
rtoes -16.5039 0 0
lowerback -5.09557 1.21528 -2.27839
upperback -3.57074 1.73653 0.918116
thorax -0.867506 0.902914 2.24516
lowerneck -18.0353 -4.89726 -13.7714
upperneck 23.1895 -6.21784 12.5991
head 11.4078 -2.57614 6.06933
lclavicle 1.6993e-14 1.02924e-14 0
lhumerus -36.5345 -5.46085 87.3429
lradius 19.9305 0 0
lwrist -4.97053 0 0
lhand -11.349 -23.266 0
lfingers 7.12502 0 0
lthumb 14.6839 6.18836 0
rclavicle 1.6993e-14 1.02924e-14 0
rhumerus -46.0674 9.34881 -90.0184
rradius 30.4541 0 0
rwrist -13.8902 0 0
rhand -29.3036 -24.8137 0
rfingers 7.12502 0 0
rthumb -2.64375 -54.7233 0
444
root 10.6223 17.2283 26.498 7.251 -0.949275 0.805086
lfemur -29.1271 4.28361 -26.7042
ltibia 31.8998 0 0
lfoot -7.65827 5.78409 0
ltoes 5.53397 0 0
rfemur -10.2542 -0.796082 18.3728
rtibia 56.2393 0 0
rfoot 11.1363 -3.72305 0
rtoes -16.3897 0 0
lowerback -5.056 1.00303 -2.34526
upperback -3.46557 1.45572 0.944428
thorax -0.762939 0.76006 2.29418
lowerneck -18.2079 -4.79815 -13.5941
upperneck 23.2871 -6.07943 12.4521
head 11.4491 -2.51117 6.0082
lclavicle 1.66244e-14 1.08153e-14 0
lhumerus -35.5264 -5.94126 87.2323
lradius 20.1101 0 0
lwrist -4.7378 0 0
lhand -11.4798 -23.294 0
lfingers 7.12502 0 0
lthumb 14.5578 6.1689 0
rclavicle 1.66244e-14 1.08153e-14 0
rhumerus -46.143 9.41371 -89.9321
rradius 30.7857 0 0
rwrist -14.0882 0 0
rhand -29.7451 -24.3978 0
rfingers 7.12502 0 0
rthumb -3.0699 -54.2952 0
445
root 10.6389 17.2389 26.6192 7.11673 -0.736594 0.907527
lfemur -28.4124 4.26951 -26.8571
ltibia 31.7878 0 0
lfoot -8.0944 5.63854 0
ltoes 5.46774 0 0
rfemur -11.3065 -0.858631 18.2849
rtibia 56.5429 0 0
rfoot 9.8465 -4.00999 0
rtoes -16.2639 0 0
lowerback -5.01855 0.783748 -2.40858
upperback -3.35111 1.1649 0.975638
thorax -0.646797 0.612053 2.34612
lowerneck -18.3897 -4.69612 -13.4087
upperneck 23.3866 -5.93683 12.2993
head 11.4919 -2.44401 5.94412
lclavicle 1.62376e-14 1.13161e-14 0
lhumerus -34.4938 -6.44788 87.1275
lradius 20.3067 0 0
lwrist -4.47887 0 0
lhand -11.6152 -23.3268 0
lfingers 7.12502 0 0
lthumb 14.4273 6.14487 0
rclavicle 1.62376e-14 1.13161e-14 0
rhumerus -46.1996 9.48791 -89.8358
rradius 31.1422 0 0
rwrist -14.2995 0 0
rhand -30.2066 -23.9596 0
rfingers 7.12502 0 0
rthumb -3.51539 -53.8441 0
446
root 10.6552 17.2496 26.7393 6.97685 -0.516549 1.00539
lfemur -27.6817 4.24666 -26.9973
ltibia 31.6572 0 0
lfoot -8.55528 5.49561 0
ltoes 5.37988 0 0
rfemur -12.3706 -0.915052 18.208
rtibia 56.796 0 0
rfoot 8.48849 -4.29708 0
rtoes -16.1286 0 0
lowerback -4.98333 0.558447 -2.46871
upperback -3.22832 0.865505 1.01119
thorax -0.520073 0.459621 2.40061
lowerneck -18.5796 -4.59166 -13.2161
upperneck 23.4875 -5.79076 12.1416
head 11.536 -2.375 5.87753
lclavicle 1.58365e-14 1.17942e-14 0
lhumerus -33.4411 -6.97787 87.0283
lradius 20.519 0 0
lwrist -4.19627 0 0
lhand -11.7544 -23.3641 0
lfingers 7.12502 0 0
lthumb 14.2932 6.11659 0
rclavicle 1.58365e-14 1.17942e-14 0
rhumerus -46.2388 9.57003 -89.7303
rradius 31.5203 0 0
rwrist -14.5225 0 0
rhand -30.6846 -23.5022 0
rfingers 7.12502 0 0
rthumb -3.97684 -53.3736 0
447
root 10.6711 17.2601 26.8583 6.83231 -0.29031 1.09909
lfemur -26.936 4.2158 -27.1254
ltibia 31.5079 0 0
lfoot -9.03731 5.35546 0
ltoes 5.27229 0 0
rfemur -13.4436 -0.964811 18.1406
rtibia 57.0005 0 0
rfoot 7.07163 -4.58391 0
rtoes -15.986 0 0
lowerback -4.95049 0.328145 -2.52601
upperback -3.09814 0.558964 1.05051
thorax -0.383764 0.303489 2.45729
lowerneck -18.7764 -4.48525 -13.0175
upperneck 23.5893 -5.64194 11.9801
head 11.5812 -2.30447 5.80889
lclavicle 1.54253e-14 1.22494e-14 0
lhumerus -32.3726 -7.52835 86.9344
lradius 20.7459 0 0
lwrist -3.89253 0 0
lhand -11.8967 -23.4055 0
lfingers 7.12502 0 0
lthumb 14.156 6.08442 0
rclavicle 1.54253e-14 1.22494e-14 0
rhumerus -46.2624 9.65872 -89.6166
rradius 31.9166 0 0
rwrist -14.7553 0 0
rhand -31.1756 -23.0292 0
rfingers 7.12502 0 0
rthumb -4.45086 -52.8872 0
448
root 10.6866 17.2705 26.9764 6.68406 -0.0590438 1.18904
lfemur -26.1763 4.17766 -27.2424
ltibia 31.3398 0 0
lfoot -9.53689 5.21823 0
ltoes 5.14688 0 0
rfemur -14.5226 -1.00737 18.0812
rtibia 57.1581 0 0
rfoot 5.60531 -4.87002 0
rtoes -15.8384 0 0
lowerback -4.92014 0.0938598 -2.58082
upperback -2.96152 0.246719 1.09305
thorax -0.238861 0.144385 2.51578
lowerneck -18.9791 -4.37739 -12.814
upperneck 23.6916 -5.49107 11.8157
head 11.6271 -2.23275 5.73864
lclavicle 1.50081e-14 1.2681e-14 0
lhumerus -31.2928 -8.09645 86.8456
lradius 20.986 0 0
lwrist -3.57017 0 0
lhand -12.0414 -23.4506 0
lfingers 7.12502 0 0
lthumb 14.0166 6.0487 0
rclavicle 1.50081e-14 1.2681e-14 0
rhumerus -46.272 9.75259 -89.4955
rradius 32.3278 0 0
rwrist -14.9962 0 0
rhand -31.6762 -22.5439 0
rfingers 7.12502 0 0
rthumb -4.93408 -52.3883 0
449
root 10.7016 17.2808 27.0939 6.53307 0.17608 1.27565
lfemur -25.4035 4.133 -27.3491
ltibia 31.1529 0 0
lfoot -10.0504 5.08407 0
ltoes 5.00554 0 0
rfemur -15.6046 -1.0422 18.0282
rtibia 57.2705 0 0
rfoot 4.09893 -5.15499 0
rtoes -15.6879 0 0
lowerback -4.89242 -0.143392 -2.63351
upperback -2.81941 -0.0697913 1.13825
thorax -0.086361 -0.0169666 2.57572
lowerneck -19.1864 -4.26855 -12.6069
upperneck 23.7938 -5.33888 11.6494
head 11.6735 -2.16019 5.66722
lclavicle 1.45891e-14 1.30886e-14 0
lhumerus -30.206 -8.6793 86.7616
lradius 21.2382 0 0
lwrist -3.23172 0 0
lhand -12.1876 -23.4991 0
lfingers 7.12502 0 0
lthumb 13.8757 6.00977 0
rclavicle 1.45891e-14 1.30886e-14 0
rhumerus -46.2693 9.85029 -89.368
rradius 32.7504 0 0
rwrist -15.2435 0 0
rhand -32.1828 -22.0498 0
rfingers 7.12502 0 0
rthumb -5.42313 -51.8804 0
450
root 10.7161 17.2908 27.2107 6.38027 0.413894 1.35934
lfemur -24.6187 4.08255 -27.4465
ltibia 30.9473 0 0
lfoot -10.5744 4.95314 0
ltoes 4.85017 0 0
rfemur -16.6866 -1.06877 17.9801
rtibia 57.3396 0 0
rfoot 2.56186 -5.43837 0
rtoes -15.5367 0 0
lowerback -4.86745 -0.382595 -2.68444
upperback -2.67276 -0.38913 1.18555
thorax 0.072743 -0.179838 2.63673
lowerneck -19.3972 -4.15922 -12.3973
upperneck 23.8954 -5.18607 11.4823
head 11.7202 -2.08712 5.59509
lclavicle 1.41724e-14 1.34718e-14 0
lhumerus -29.1168 -9.27405 86.6821
lradius 21.5012 0 0
lwrist -2.87972 0 0
lhand -12.3347 -23.5504 0
lfingers 7.12502 0 0
lthumb 13.734 5.96798 0
rclavicle 1.41724e-14 1.34718e-14 0
rhumerus -46.2562 9.95044 -89.235
rradius 33.1811 0 0
rwrist -15.4952 0 0
rhand -32.6919 -21.5501 0
rfingers 7.12502 0 0
rthumb -5.91462 -51.3671 0
